HIERARCHY
ROOT Torso
{
	OFFSET 0.000000 0.000000 0.000000
	CHANNELS 6 Xposition Yposition Zposition Zrotation Yrotation Xrotation
	JOINT TorsoExt
	{
		OFFSET 0.000000 0.000000 0.000000
		CHANNELS 6 Xposition Yposition Zposition Zrotation Yrotation Xrotation
		JOINT LeftHip
		{
			OFFSET 0.000000 0.010000 -0.060000
			CHANNELS 3 Zrotation Yrotation Xrotation
			JOINT LeftThigh
			{
				OFFSET 0.055000 0.000000 -0.055000
				CHANNELS 6 Xposition Yposition Zposition Zrotation Yrotation Xrotation
				JOINT LeftLeg
				{
					OFFSET 0.000000 -0.015000 -0.120000
					CHANNELS 6 Xposition Yposition Zposition Zrotation Yrotation Xrotation
					JOINT LeftFoot
					{
						OFFSET 0.000000 0.010000 -0.100000
						CHANNELS 6 Xposition Yposition Zposition Zrotation Yrotation Xrotation
						End Site
						{
							OFFSET 0.000000 -0.090000 -0.035000
						}
					}
				}
			}
		}
		JOINT RightHip
		{
			OFFSET 0.000000 0.010000 -0.060000
			CHANNELS 3 Zrotation Yrotation Xrotation
			JOINT RightThigh
			{
				OFFSET -0.055000 0.000000 -0.055000
				CHANNELS 6 Xposition Yposition Zposition Zrotation Yrotation Xrotation
				JOINT RightLeg
				{
					OFFSET 0.000000 -0.015000 -0.120000
					CHANNELS 6 Xposition Yposition Zposition Zrotation Yrotation Xrotation
					JOINT RightFoot
					{
						OFFSET 0.000000 0.010000 -0.100000
						CHANNELS 6 Xposition Yposition Zposition Zrotation Yrotation Xrotation
						End Site
						{
							OFFSET 0.000000 -0.090000 -0.035000
						}
					}
				}
			}
		}
	}
	JOINT Neck
	{
		OFFSET 0.000000 -0.000000 0.040000
		CHANNELS 6 Xposition Yposition Zposition Zrotation Yrotation Xrotation
		JOINT Head
		{
			OFFSET 0.000000 -0.000000 0.100000
			CHANNELS 6 Xposition Yposition Zposition Zrotation Yrotation Xrotation
			End Site
			{
				OFFSET 0.000000 -0.000000 0.070000
			}
		}
	}
	JOINT LeftUpperarm
	{
		OFFSET 0.098000 -0.000000 0.075000
		CHANNELS 6 Xposition Yposition Zposition Zrotation Yrotation Xrotation
		JOINT LeftLowerarm
		{
			OFFSET 0.000000 -0.090000 0.009000
			CHANNELS 6 Xposition Yposition Zposition Zrotation Yrotation Xrotation
			End Site
			{
				OFFSET 0.000000 -0.105000 0.000000
			}
		}
	}
	JOINT RightUpperarm
	{
		OFFSET -0.098000 -0.000000 0.075000
		CHANNELS 6 Xposition Yposition Zposition Zrotation Yrotation Xrotation
		JOINT RightLowerarm
		{
			OFFSET 0.000000 -0.090000 0.009000
			CHANNELS 6 Xposition Yposition Zposition Zrotation Yrotation Xrotation
			End Site
			{
				OFFSET 0.000000 -0.105000 0.000000
			}
		}
	}
}
MOTION
Frames: 6
Frame Time: 0.041667
0.000000 0.000000 0.000000 0.000000 -0.000000 0.000000 0.000000 0.000000 0.000000 0.000000 -0.000000 -0.000001 -35.121902 2.342753 14.326916 0.055000 -0.000000 -0.055000 -0.000003 0.000003 -0.000002 0.000001 -0.015000 -0.120000 -145.537302 -7.287504 7.411030 0.000001 0.010000 -0.100000 -175.505522 25.529459 -10.913850 36.038038 -3.118764 14.511821 -0.055000 0.000000 -0.054999 144.046422 5.045341 20.688486 -0.000000 -0.015000 -0.120000 -0.248233 1.984621 -12.840105 -0.000000 0.010000 -0.100000 174.039190 -26.431905 -8.049287 -0.000000 -0.000000 0.040002 -0.059643 0.252856 -10.544198 -0.000001 0.000000 0.100000 0.211143 0.155077 24.688835 0.098000 -0.000001 0.075000 -0.000074 97.999991 -84.289452 -0.000000 -0.089999 0.009000 -0.000002 0.000005 -5.710590 -0.098002 -0.000000 0.075000 0.000074 -97.999998 -84.289452 -0.000002 -0.090001 0.009000 -0.000001 0.000005 -5.710591 
0.000000 0.000000 0.000000 0.000000 -0.000000 0.000000 0.000000 0.000000 0.000000 0.000000 -0.000000 -0.000001 -57.686220 -3.202843 12.064472 0.055000 0.000000 -0.055000 -0.000001 0.000005 0.000000 -0.000000 -0.015000 -0.119998 -145.075035 -7.777583 -2.712153 0.000000 0.010000 -0.100000 -158.005963 27.522848 -13.513544 13.763744 -2.751808 8.526104 -0.055000 -0.000000 -0.055001 144.502078 4.551432 27.710219 -0.000000 -0.015000 -0.119999 -4.992747 -0.247251 -42.671597 -0.000001 0.010000 -0.100000 161.981706 -28.950173 -26.601374 -0.000001 0.000000 0.040002 -12.574342 -5.028526 -1.243235 -0.000000 -0.000000 0.100004 12.748103 6.061200 -2.795742 0.098000 -0.000000 0.075000 -32.462059 179.293354 -87.393807 -0.000000 -0.089998 0.009001 -16.785352 2.703843 23.886655 -0.098002 -0.000001 0.075000 18.541390 -176.002077 -85.944332 -0.000000 -0.089998 0.009000 15.894562 -2.324821 22.250328 
0.000000 0.000000 0.000000 0.000000 -0.000000 0.000000 0.000000 0.000000 0.000000 0.000000 -0.000000 -0.000001 -57.803980 -3.861945 12.442740 0.055000 -0.000000 -0.055000 -0.000002 0.000001 -0.000002 0.000001 -0.015000 -0.120000 -145.148295 -8.593459 -2.281471 -0.000000 0.010000 -0.100000 -157.699055 27.521363 -13.190400 13.696072 -3.319207 8.020405 -0.055000 -0.000000 -0.055000 144.421782 3.736279 27.083544 -0.000000 -0.015000 -0.120000 -5.069451 -0.262070 -42.512197 -0.000001 0.010000 -0.100000 162.488575 -28.904616 -27.216718 0.000000 0.000000 0.040000 -12.673933 -4.931282 -1.503639 0.000000 -0.000000 0.099998 12.692816 5.815985 -2.495686 0.097998 -0.000001 0.075000 -32.637946 179.083462 -87.177249 -0.000001 -0.090000 0.008999 -17.065670 2.829401 24.404662 -0.097998 0.000000 0.075000 18.654978 -175.563401 -85.795734 0.000000 -0.090002 0.009000 16.221716 -2.460553 22.849715 
0.000000 0.000000 0.000000 0.000000 -0.000000 0.000000 0.000000 0.000000 0.000000 0.000000 -0.000000 -0.000001 -57.940181 -3.911861 12.346812 0.055000 -0.000000 -0.055000 0.000002 0.000001 -0.000001 -0.000000 -0.015000 -0.119999 -145.083668 -8.568649 -2.472333 0.000001 0.010000 -0.099999 -157.741470 27.560684 -13.651999 13.557826 -3.244280 7.942574 -0.055000 -0.000000 -0.055001 144.486054 3.760515 27.033725 0.000001 -0.015000 -0.120000 -4.920134 -0.205580 -42.442608 -0.000000 0.010000 -0.100000 162.464068 -28.906911 -27.211581 -0.000000 -0.000000 0.040000 -12.775315 -5.227534 -1.800069 0.000001 -0.000000 0.100002 12.532798 6.213441 -2.035565 0.098000 0.000001 0.075000 -33.299460 178.805897 -86.951416 -0.000002 -0.090000 0.009001 -17.333885 2.952262 24.901570 -0.098000 -0.000001 0.075000 18.812134 -175.039061 -85.675516 0.000001 -0.090000 0.009000 16.544692 -2.598540 23.443255 
0.000000 0.000000 0.000000 0.000000 -0.000000 0.000000 0.000000 0.000000 0.000000 0.000000 -0.000000 -0.000001 -58.305145 -3.451248 11.936062 0.055000 -0.000000 -0.055000 0.000001 0.000005 -0.000003 -0.000000 -0.015000 -0.120000 -144.796377 -7.875924 -2.426138 0.000000 0.010000 -0.100000 -157.612639 27.609583 -14.055144 13.150559 -2.709287 8.249523 -0.055000 -0.000000 -0.055000 144.778058 4.450362 26.840470 -0.000001 -0.015001 -0.119999 -4.733674 -0.142730 -42.291753 0.000001 0.010000 -0.100000 162.393867 -28.913475 -27.189895 0.000001 -0.000000 0.040000 -12.838255 -5.394982 -1.950779 -0.000000 -0.000000 0.100000 12.517693 6.452031 -1.759894 0.098000 -0.000001 0.075000 -34.220569 178.430332 -86.725207 0.000002 -0.090002 0.009000 -17.594475 3.074424 25.385832 -0.098000 0.000000 0.075000 19.051337 -174.505405 -85.643278 0.000000 -0.090000 0.009000 16.967735 -2.785228 24.223689 
0.000000 0.000000 0.000000 0.000000 -0.000000 0.000000 0.000000 0.000000 0.000000 0.000000 -0.000000 -0.000001 -58.713843 -3.350427 11.928589 0.055000 -0.000000 -0.055000 -0.000001 0.000002 0.000001 -0.000000 -0.015000 -0.120000 -144.675141 -7.738732 -2.447585 0.000001 0.010000 -0.099999 -157.674835 27.671279 -14.831756 12.737042 -2.670158 8.342818 -0.054999 0.000000 -0.055001 144.899909 4.586279 26.919584 0.000000 -0.014999 -0.120000 -4.726162 -0.243477 -42.155395 0.000000 0.010000 -0.100001 162.282057 -28.922112 -26.620949 -0.000001 -0.000000 0.039998 -13.015531 -5.757401 -2.104940 0.000001 -0.000000 0.100000 12.343263 7.140016 -1.323450 0.098000 -0.000002 0.075001 -35.068718 178.010508 -86.500719 -0.000001 -0.090000 0.009000 -17.974891 3.257596 26.095163 -0.098000 -0.000000 0.075000 19.429764 -173.982158 -85.584838 0.000000 -0.090002 0.009000 17.419446 -2.992137 25.060526 
